<svg xmlns="http://www.w3.org/2000/svg" viewBox="0 0 256 256">
  <rect width="256" height="256" rx="48" fill="#111318"/>
  <circle cx="128" cy="128" r="84" fill="#ffd24a" opacity="0.12"/>
  <path d="M82 78h75c24 0 42 14 42 35 0 16-10 28-26 32 19 4 31 17 31 35 0 24-20 42-49 42H82V78zm34 27v29h34c10 0 16-6 16-14s-6-15-16-15h-34zm0 55v35h40c10 0 17-7 17-17s-7-18-17-18h-40z" fill="#ffd24a"/>
  <path d="M64 185c28-2 44-17 50-44" stroke="#ffd24a" stroke-width="10" stroke-linecap="round" opacity="0.85"/>
</svg>
